HIERARCHY
ROOT joint_Root
{
	OFFSET 0.0 0.0 0.0
	CHANNELS 6 Xposition Yposition Zposition Zrotation Xrotation Yrotation 
	JOINT Hips
	{
		OFFSET -17.1583 93.1646 452.98
		CHANNELS 6 Xposition Yposition Zposition Zrotation Xrotation Yrotation 
		JOINT Spine
		{
			OFFSET 15.7357 0.0 0.0
			CHANNELS 6 Xposition Yposition Zposition Zrotation Xrotation Yrotation 
			JOINT Chest
			{
				OFFSET 8.98455 -0.406207 0.0
				CHANNELS 6 Xposition Yposition Zposition Zrotation Xrotation Yrotation 
				JOINT Neck
				{
					OFFSET 16.3773 0.0 0.0
					CHANNELS 6 Xposition Yposition Zposition Zrotation Xrotation Yrotation 
					JOINT Head
					{
						OFFSET 6.45672 0.0 0.0
						CHANNELS 6 Xposition Yposition Zposition Zrotation Xrotation Yrotation 
						End Site
						{
							OFFSET 0.0 0.0 0.0
						}
					}
				}
				JOINT Shoulder_L
				{
					OFFSET 12.9942 -0.242716 4.98039
					CHANNELS 6 Xposition Yposition Zposition Zrotation Xrotation Yrotation 
					JOINT UpperArm_L
					{
						OFFSET 5.34809 0.0 0.0
						CHANNELS 6 Xposition Yposition Zposition Zrotation Xrotation Yrotation 
						JOINT LowerArm_L
						{
							OFFSET 24.3286 1.87007e-05 0.0
							CHANNELS 6 Xposition Yposition Zposition Zrotation Xrotation Yrotation 
							JOINT Hand_L
							{
								OFFSET 22.2916 0.0 0.0
								CHANNELS 6 Xposition Yposition Zposition Zrotation Xrotation Yrotation 
								End Site
								{
									OFFSET 0.0 0.0 0.0
								}
							}
						}
					}
				}
				JOINT Shoulder_R
				{
					OFFSET 12.9945 -0.242716 -4.98039
					CHANNELS 6 Xposition Yposition Zposition Zrotation Xrotation Yrotation 
					JOINT UpperArm_R
					{
						OFFSET -5.34813 0.0 0.0
						CHANNELS 6 Xposition Yposition Zposition Zrotation Xrotation Yrotation 
						JOINT LowerArm_R
						{
							OFFSET -24.3289 0.000322201 0.0
							CHANNELS 6 Xposition Yposition Zposition Zrotation Xrotation Yrotation 
							JOINT Hand_R
							{
								OFFSET -22.2915 -0.000108084 0.0
								CHANNELS 6 Xposition Yposition Zposition Zrotation Xrotation Yrotation 
								End Site
								{
									OFFSET 0.0 0.0 0.0
								}
							}
						}
					}
				}
			}
		}
		JOINT UpperLeg_L
		{
			OFFSET -2.19248 -6.46944 0.0
			CHANNELS 6 Xposition Yposition Zposition Zrotation Xrotation Yrotation 
			JOINT LowerLeg_L
			{
				OFFSET 39.0811 0.0 -1.23785e-05
				CHANNELS 6 Xposition Yposition Zposition Zrotation Xrotation Yrotation 
				JOINT Foot_L
				{
					OFFSET 40.9854 0.0 -1.26872e-05
					CHANNELS 6 Xposition Yposition Zposition Zrotation Xrotation Yrotation 
					JOINT Toes_L
					{
						OFFSET 11.7543 0.0 0.0
						CHANNELS 6 Xposition Yposition Zposition Zrotation Xrotation Yrotation 
						End Site
						{
							OFFSET 0.0 0.0 0.0
						}
					}
				}
			}
		}
		JOINT UpperLeg_R
		{
			OFFSET -2.19251 6.46944 0.0
			CHANNELS 6 Xposition Yposition Zposition Zrotation Xrotation Yrotation 
			JOINT LowerLeg_R
			{
				OFFSET -39.0811 -0.00228153 -0.0401928
				CHANNELS 6 Xposition Yposition Zposition Zrotation Xrotation Yrotation 
				JOINT Foot_R
				{
					OFFSET -40.9854 0.0 0.0
					CHANNELS 6 Xposition Yposition Zposition Zrotation Xrotation Yrotation 
					JOINT Toes_R
					{
						OFFSET -11.7543 0.0 0.0
						CHANNELS 6 Xposition Yposition Zposition Zrotation Xrotation Yrotation 
						End Site
						{
							OFFSET 0.0 0.0 0.0
						}
					}
				}
			}
		}
	}
}
MOTION
Frames:	5
Frame Time:	0.0333333
0.000000 0.000000 0.000000 0.000000 0.000000 -0.000000 -5.571750 91.780300 0.509473 84.686900 1.945670 3.621260 15.735700 0.000005 -0.000001 82.157600 87.429600 -80.893000 8.984550 -0.406207 -0.000000 -2.663110 -0.816267 2.510300 16.377300 -0.000001 -0.000001 7.894600 -2.526880 -8.773320 6.456720 -0.000001 -0.000000 1.878850 -8.546380 -16.411600 12.994200 -0.242716 4.980390 -92.758600 7.197800 -68.965000 5.348090 -0.000007 -0.000001 -73.708900 2.001950 -4.793120 24.328600 0.000019 0.000005 32.728600 -38.151100 -133.866000 22.291600 -0.000001 0.000005 42.311000 5.070700 5.777030 12.994500 -0.242716 -4.980390 88.333400 5.125430 -71.960400 -5.348130 -0.000001 -0.000004 -72.475800 31.190000 -2.775940 -24.328900 0.000322 -0.000009 2.059090 6.746220 -17.025400 -22.291500 -0.000108 -0.000004 1.482880 5.223870 2.113610 -2.192480 -6.469440 -0.000000 -170.486000 5.410630 -3.584720 39.081100 -0.000007 -0.000012 0.300178 -0.582364 27.269300 40.985400 -0.000006 -0.000013 -1.926740 10.054500 -76.332100 11.754300 -0.000000 0.000003 -0.000205 0.171008 -9.640650 -2.192510 6.469440 -0.000001 -169.308000 8.490790 -176.232000 -39.081100 -0.002282 -0.040193 0.100175 -0.375851 14.449000 -40.985400 0.000008 0.000006 5.733930 0.725520 -71.080800 -11.754300 -0.000006 -0.000006 -0.010252 0.273179 -5.474350
0.000000 0.000000 0.000000 0.000000 0.000000 -0.000000 -5.547580 91.784300 0.486085 84.691000 1.936030 3.600300 15.735700 0.000005 -0.000001 82.165900 87.415800 -80.883400 8.984550 -0.406207 -0.000000 -2.635590 -0.820578 2.546140 16.377300 -0.000001 -0.000001 7.849750 -2.524130 -8.740530 6.456720 -0.000001 -0.000000 1.861360 -8.510570 -16.329100 12.994200 -0.242716 4.980390 -92.743800 7.161310 -68.971900 5.348090 -0.000007 -0.000001 -73.783100 1.916460 -4.802370 24.328600 0.000019 0.000005 33.042700 -38.340400 -133.642000 22.291600 -0.000001 0.000005 42.460000 5.057020 6.081750 12.994500 -0.242716 -4.980390 88.315000 5.171680 -71.925800 -5.348130 -0.000001 -0.000004 -72.414800 31.192300 -2.826300 -24.328900 0.000322 -0.000009 2.078000 6.812250 -17.016500 -22.291500 -0.000108 -0.000004 1.403150 5.225330 2.076010 -2.192480 -6.469440 -0.000000 -170.526000 5.381420 -3.624460 39.081100 -0.000007 -0.000012 0.306517 -0.594728 27.266700 40.985400 -0.000006 -0.000013 -1.804220 10.033100 -76.292100 11.754300 -0.000000 0.000003 0.000036 0.167021 -9.802570 -2.192510 6.469440 -0.000001 -169.331000 8.497790 -176.289000 -39.081100 -0.002282 -0.040193 0.101864 -0.381419 14.484800 -40.985400 0.000008 0.000006 5.767240 0.742862 -71.113500 -11.754300 -0.000006 -0.000006 -0.010704 0.276489 -5.338890
0.000000 0.000000 0.000000 0.000000 0.000000 -0.000000 -5.501170 91.800600 0.448346 84.727900 1.948350 3.546930 15.735700 0.000005 -0.000001 82.078400 87.415500 -80.786900 8.984550 -0.406207 -0.000000 -2.635840 -0.829311 2.564120 16.377300 -0.000001 -0.000001 7.837600 -2.536590 -8.675570 6.456720 -0.000001 -0.000000 1.798150 -8.455780 -16.313200 12.994200 -0.242716 4.980390 -92.754300 7.176540 -68.938300 5.348090 -0.000007 -0.000001 -73.781100 1.802130 -4.942650 24.328600 0.000019 0.000005 33.402400 -38.526500 -133.367000 22.291600 -0.000001 0.000005 42.726500 5.043560 6.378540 12.994500 -0.242716 -4.980390 88.307300 5.191390 -71.913100 -5.348130 -0.000001 -0.000004 -72.390900 31.162700 -2.813220 -24.328900 0.000322 -0.000009 2.061620 6.764430 -17.002100 -22.291500 -0.000108 -0.000004 1.524630 5.223210 2.130560 -2.192480 -6.469440 -0.000000 -170.569000 5.383910 -3.678640 39.081100 -0.000007 -0.000012 0.297547 -0.578885 27.203700 40.985400 -0.000006 -0.000013 -1.899950 10.054600 -76.185200 11.754300 -0.000000 0.000003 0.000086 0.166158 -9.837590 -2.192510 6.469440 -0.000001 -169.394000 8.535740 -176.346000 -39.081100 -0.002282 -0.040193 0.101480 -0.380970 14.447000 -40.985400 0.000008 0.000006 5.773690 0.815714 -71.076400 -11.754300 -0.000006 -0.000006 -0.010275 0.273351 -5.467320
0.000000 0.000000 0.000000 0.000000 0.000000 -0.000000 -5.471250 91.813900 0.420391 84.726300 1.927000 3.520980 15.735700 0.000005 -0.000001 82.289300 87.414100 -80.973000 8.984550 -0.406207 -0.000000 -2.630320 -0.813054 2.614140 16.377300 -0.000001 -0.000001 7.820160 -2.512930 -8.665120 6.456720 -0.000001 -0.000000 1.823840 -8.466180 -16.237100 12.994200 -0.242716 4.980390 -92.752900 7.174720 -68.943900 5.348090 -0.000007 -0.000001 -73.753100 1.732080 -4.944800 24.328600 0.000019 0.000005 33.370700 -38.505800 -133.388000 22.291600 -0.000001 0.000005 42.677600 5.041860 6.415780 12.994500 -0.242716 -4.980390 88.316200 5.170640 -71.934400 -5.348130 -0.000001 -0.000004 -72.397200 31.065200 -2.756840 -24.328900 0.000322 -0.000009 2.086790 6.859630 -16.973700 -22.291500 -0.000108 -0.000004 1.473910 5.223100 2.133370 -2.192480 -6.469440 -0.000000 -170.592000 5.345630 -3.702660 39.081100 -0.000007 -0.000012 0.298631 -0.581789 27.171900 40.985400 -0.000006 -0.000013 -1.868980 10.064000 -76.182900 11.754300 -0.000000 0.000003 -0.000096 0.169225 -9.713030 -2.192510 6.469440 -0.000001 -169.426000 8.559790 -176.372000 -39.081100 -0.002282 -0.040193 0.100746 -0.378909 14.418200 -40.985400 0.000008 0.000006 5.725170 0.838850 -71.077700 -11.754300 -0.000006 -0.000006 -0.010639 0.276023 -5.357970
0.000000 0.000000 0.000000 0.000000 0.000000 -0.000000 -5.416560 91.820300 0.399746 84.767000 1.928210 3.473210 15.735700 0.000005 -0.000001 82.145000 87.411000 -80.813000 8.984550 -0.406207 -0.000000 -2.625690 -0.828149 2.645020 16.377300 -0.000001 -0.000001 7.806760 -2.512150 -8.669620 6.456720 -0.000001 -0.000000 1.797730 -8.452880 -16.217200 12.994200 -0.242716 4.980390 -92.747300 7.169810 -68.969500 5.348090 -0.000007 -0.000001 -73.789700 1.521360 -4.948960 24.328600 0.000019 0.000005 33.228000 -38.363700 -133.454000 22.291600 -0.000001 0.000005 42.782300 5.047450 6.292600 12.994500 -0.242716 -4.980390 88.322600 5.153240 -71.942600 -5.348130 -0.000001 -0.000004 -72.365600 31.039100 -2.758910 -24.328900 0.000322 -0.000009 2.069920 6.833330 -16.905100 -22.291500 -0.000108 -0.000004 1.458230 5.225520 2.071230 -2.192480 -6.469440 -0.000000 -170.656000 5.321920 -3.762540 39.081100 -0.000007 -0.000012 0.296519 -0.577975 27.159800 40.985400 -0.000006 -0.000013 -1.917250 10.114900 -76.099600 11.754300 -0.000000 0.000003 -0.000028 0.168088 -9.759240 -2.192510 6.469440 -0.000001 -169.526000 8.700740 -176.458000 -39.081100 -0.002282 -0.040193 0.102463 -0.383856 14.480500 -40.985400 0.000008 0.000006 5.750880 1.008990 -71.105700 -11.754300 -0.000006 -0.000006 -0.010475 0.274821 -5.407170
